<?xml version="1.0" standalone="no"?>
<!DOCTYPE svg PUBLIC "-//W3C//DTD SVG 20010904//EN"
 "http://www.w3.org/TR/2001/REC-SVG-20010904/DTD/svg10.dtd">
<svg version="1.0" xmlns="http://www.w3.org/2000/svg"
 width="1772.000000pt" height="1772.000000pt" viewBox="0 0 1772.000000 1772.000000"
 preserveAspectRatio="xMidYMid meet">

<g transform="translate(0.000000,1772.000000) scale(0.100000,-0.100000)"
fill="#000000" stroke="none">
<path d="M14692 12915 c-35 -7 -69 -18 -75 -24 -6 -6 -24 -11 -39 -11 -15 0
-28 -4 -28 -9 0 -5 -10 -13 -22 -17 -12 -4 -31 -17 -41 -30 -10 -14 -23 -22
-28 -19 -5 4 -9 1 -9 -5 0 -6 -16 -28 -35 -48 -19 -20 -35 -42 -35 -48 0 -7
-7 -14 -15 -18 -8 -3 -15 -16 -15 -30 0 -13 -6 -26 -14 -29 -7 -3 -16 -28 -20
-56 -4 -27 -11 -53 -16 -56 -6 -3 -10 -16 -10 -29 0 -28 -27 -65 -37 -51 -5 6
-15 11 -23 13 -21 5 -56 44 -64 73 -15 51 -43 95 -94 146 -29 29 -57 53 -61
53 -5 0 -14 7 -21 15 -7 8 -19 15 -28 15 -8 0 -23 6 -31 14 -19 15 -184 47
-221 42 -70 -11 -135 -27 -141 -37 -3 -6 -10 -10 -15 -10 -23 2 -51 -15 -93
-57 -25 -26 -49 -45 -53 -44 -5 1 -8 -5 -8 -13 0 -9 -7 -18 -15 -21 -8 -4 -15
-12 -15 -18 0 -7 -5 -17 -11 -23 -12 -12 -59 -121 -59 -137 0 -5 -7 -18 -16
-27 -15 -16 -17 -67 -19 -451 -1 -238 2 -443 6 -455 5 -12 16 -22 26 -22 721
-10 2065 -2 2080 12 11 12 4 201 -8 205 -5 2 -9 31 -9 65 0 34 -4 78 -9 97 -4
19 -3 93 2 165 12 157 -7 467 -29 486 -8 6 -14 24 -14 39 0 16 -5 30 -12 32
-6 2 -13 15 -15 29 -2 13 -9 29 -16 34 -7 6 -16 18 -20 28 -4 10 -11 15 -17
12 -6 -3 -7 1 -4 9 3 9 1 16 -5 16 -6 0 -11 7 -11 15 0 8 -7 15 -15 15 -8 0
-15 6 -15 13 -1 6 -13 21 -27 32 -14 11 -34 28 -44 38 -11 9 -25 17 -33 17 -7
0 -19 7 -26 15 -7 8 -22 15 -34 15 -11 0 -33 6 -48 14 -28 15 -149 37 -190 35
-13 -1 -51 -7 -86 -14z m162 -231 c45 -9 85 -20 91 -25 5 -5 17 -9 26 -9 10 0
41 -22 70 -50 29 -27 56 -50 61 -50 4 0 8 -7 8 -15 0 -8 7 -15 15 -15 8 0 15
-9 15 -20 0 -11 6 -20 14 -20 15 0 26 -21 26 -50 0 -10 4 -20 10 -22 22 -8 48
-280 49 -534 l1 -111 -30 -26 -30 -27 -183 0 c-101 0 -273 3 -383 7 -197 6
-199 7 -225 32 l-26 26 -1 215 c-1 126 3 232 9 255 6 22 14 60 19 85 11 60 42
143 58 153 6 4 12 19 12 31 0 13 7 26 15 30 8 3 15 12 15 21 0 8 7 15 15 15 8
0 15 7 15 15 0 8 4 15 8 15 5 0 19 9 32 20 13 11 29 20 37 20 7 0 21 5 31 10
17 11 104 36 131 39 8 0 50 -6 95 -15z m-992 -125 c9 -5 25 -9 36 -9 11 0 41
-12 66 -27 26 -16 55 -33 65 -38 37 -21 67 -59 93 -117 7 -16 16 -28 20 -28 4
0 10 -17 14 -37 4 -21 13 -47 20 -58 8 -14 13 -85 15 -240 1 -121 1 -232 1
-246 -3 -49 -30 -53 -390 -46 -180 3 -335 8 -344 12 -10 4 -18 13 -18 20 0 7
-7 18 -16 26 -13 11 -15 38 -12 185 2 121 7 177 16 186 7 7 12 37 12 69 0 32
5 70 12 86 13 33 12 28 21 75 4 20 15 39 23 42 9 3 14 11 12 17 -9 26 95 112
148 122 16 3 47 10 69 15 42 10 108 5 137 -9z"/>
<path d="M9203 12882 c-32 -3 -103 -58 -103 -79 0 -6 -5 -13 -12 -15 -9 -3
-13 -535 -15 -2279 -3 -2129 -1 -2348 22 -2514 2 -16 7 -69 10 -117 4 -49 10
-88 15 -88 4 0 11 -44 15 -97 3 -54 12 -113 20 -131 8 -18 15 -56 15 -85 0
-31 6 -61 15 -73 8 -10 15 -36 15 -56 0 -20 6 -49 14 -65 16 -32 45 -140 53
-195 3 -21 11 -42 19 -49 8 -6 14 -24 14 -39 0 -15 7 -33 15 -40 8 -7 15 -23
15 -37 0 -13 16 -55 35 -94 19 -39 35 -81 35 -94 0 -13 7 -25 15 -29 8 -3 15
-17 15 -31 0 -14 6 -28 14 -31 8 -3 17 -17 21 -32 3 -14 20 -44 36 -66 16 -22
29 -46 29 -53 0 -14 40 -76 53 -81 4 -2 7 -9 7 -16 0 -7 9 -21 20 -31 11 -10
20 -23 20 -29 0 -11 54 -85 85 -117 8 -9 15 -21 15 -27 0 -7 5 -12 10 -12 13
0 50 -37 50 -50 0 -5 5 -10 10 -10 6 0 16 -11 22 -25 6 -14 18 -25 25 -25 8 0
12 -4 9 -9 -3 -5 4 -11 15 -14 12 -3 18 -10 14 -16 -3 -6 -2 -11 3 -11 12 0
62 -46 62 -57 0 -5 10 -15 21 -23 12 -8 33 -25 47 -37 14 -13 29 -23 33 -23 5
0 8 -6 7 -12 -2 -7 3 -12 10 -10 8 1 16 -7 19 -18 3 -11 11 -20 18 -20 7 0 15
-7 19 -15 3 -8 13 -15 21 -15 9 0 37 -16 62 -35 25 -19 52 -35 59 -35 8 0 14
-7 14 -15 0 -8 9 -15 19 -15 10 0 21 -7 25 -15 3 -8 14 -15 25 -15 11 0 32
-11 47 -25 15 -14 33 -25 40 -25 8 0 14 -4 14 -10 0 -5 9 -10 19 -10 11 0 26
-7 35 -15 8 -8 23 -15 34 -15 11 0 22 -6 25 -14 3 -7 22 -16 41 -20 20 -4 36
-11 36 -16 0 -5 15 -12 34 -16 19 -3 37 -12 40 -20 3 -8 18 -14 34 -14 15 0
37 -7 48 -15 10 -8 30 -15 44 -15 14 0 34 -6 45 -14 11 -7 38 -16 60 -20 22
-4 49 -13 60 -20 11 -7 36 -16 55 -18 19 -3 49 -10 65 -16 39 -14 152 -30 287
-42 59 -5 117 -15 130 -22 18 -10 135 -14 542 -16 564 -4 566 -3 566 49 0 22
-7 29 -32 38 -37 13 -284 34 -298 26 -5 -3 -139 -6 -298 -6 -212 0 -309 4
-363 15 -41 8 -105 17 -144 20 -78 6 -95 9 -110 17 -5 3 -39 6 -75 7 -78 3
-120 11 -120 22 0 5 -21 12 -47 15 -27 3 -64 12 -83 20 -19 8 -50 17 -67 20
-18 4 -33 11 -33 16 0 5 -19 9 -42 9 -24 0 -51 7 -61 15 -11 7 -36 16 -57 20
-22 4 -44 13 -51 21 -6 8 -19 14 -28 14 -10 0 -26 7 -37 15 -10 8 -32 15 -47
15 -15 0 -30 7 -33 15 -4 8 -10 15 -16 15 -18 0 -118 51 -118 61 0 5 -9 9 -19
9 -11 0 -26 7 -35 15 -8 8 -20 15 -26 15 -6 0 -13 7 -16 15 -4 8 -14 15 -24
15 -9 0 -25 9 -35 20 -10 11 -24 20 -32 20 -7 0 -13 6 -13 14 0 8 -11 17 -25
20 -14 4 -25 11 -25 16 0 6 -6 10 -13 10 -7 0 -27 16 -44 35 -17 19 -34 35
-37 35 -4 0 -20 13 -36 30 -16 16 -34 30 -41 30 -14 0 -169 158 -169 172 0 6
-16 25 -35 44 -19 18 -35 35 -35 39 0 3 -4 11 -10 18 -45 54 -90 118 -90 127
0 5 -4 10 -10 10 -5 0 -12 11 -16 25 -3 14 -11 29 -18 33 -12 8 -35 44 -68
112 -13 25 -29 51 -35 58 -7 7 -13 23 -13 34 0 11 -9 31 -20 45 -11 14 -20 34
-20 43 0 10 -7 23 -15 30 -8 7 -15 25 -15 40 0 16 -7 30 -15 34 -8 3 -15 15
-15 26 0 11 -7 31 -15 43 -8 13 -16 32 -18 42 -2 11 -8 29 -14 40 -6 11 -14
35 -18 53 -4 18 -13 45 -21 60 -8 15 -14 41 -14 57 -1 17 -7 41 -15 55 -8 14
-14 35 -15 48 0 12 -6 33 -14 45 -7 12 -17 58 -20 102 -4 44 -12 85 -17 91 -5
6 -12 43 -16 80 -3 38 -10 75 -16 81 -5 7 -13 61 -17 120 -4 60 -11 119 -15
133 -5 14 -12 142 -16 285 -4 143 -12 292 -18 330 -11 79 -15 3605 -4 3942 6
194 7 203 30 230 l25 28 802 0 801 0 29 -26 c25 -24 28 -31 21 -65 -24 -138
-30 -4254 -6 -4351 6 -24 15 -116 20 -206 4 -90 13 -173 20 -185 6 -11 11 -40
11 -64 0 -24 4 -48 10 -54 5 -5 15 -37 21 -69 6 -33 15 -65 19 -70 5 -6 12
-31 16 -55 4 -25 13 -51 21 -58 7 -7 13 -26 13 -42 0 -16 7 -30 15 -34 8 -3
15 -15 15 -27 0 -11 9 -32 20 -46 11 -14 20 -31 20 -38 0 -7 11 -24 25 -39 14
-15 28 -38 31 -52 4 -14 13 -28 20 -31 8 -3 14 -9 14 -14 0 -4 16 -25 35 -46
19 -21 35 -42 35 -47 0 -9 77 -86 86 -86 9 0 69 -45 77 -57 4 -7 19 -13 32
-13 14 0 24 -5 22 -12 -1 -6 7 -14 18 -16 11 -2 24 -10 28 -18 4 -8 13 -14 20
-14 7 -1 30 -9 52 -20 22 -11 50 -19 63 -20 12 0 25 -7 28 -15 4 -10 20 -15
47 -15 22 0 48 -7 57 -15 11 -10 42 -15 100 -16 48 -1 94 -7 105 -14 26 -17
570 -40 607 -26 14 5 28 17 32 26 10 27 7 93 -5 101 -6 3 -135 8 -287 10 -153
2 -302 6 -332 9 -104 11 -235 38 -246 51 -6 8 -30 14 -53 14 -26 0 -44 5 -47
14 -3 8 -21 17 -40 20 -19 4 -34 11 -34 16 0 6 -7 10 -15 10 -8 0 -24 9 -35
20 -11 11 -26 20 -34 20 -8 0 -16 7 -20 15 -3 8 -11 15 -19 15 -7 0 -41 28
-75 63 -91 91 -92 92 -92 115 0 13 -6 22 -15 22 -8 0 -15 4 -15 8 0 5 -9 19
-20 32 -11 13 -20 29 -20 35 0 7 -7 18 -15 25 -8 7 -15 23 -15 36 0 13 -6 27
-12 31 -7 4 -24 42 -38 83 -13 41 -30 84 -37 95 -7 11 -13 33 -13 50 0 16 -7
39 -15 49 -8 11 -15 40 -15 64 0 24 -6 56 -14 70 -13 26 -29 126 -46 297 -5
44 -9 1089 -9 2322 -1 1358 -5 2244 -10 2248 -5 3 -12 19 -16 35 -4 18 -13 30
-23 30 -8 0 -24 8 -34 17 -17 15 -88 17 -856 17 -460 1 -851 0 -869 -2z m-106
-1999 c-1 -191 -2 -37 -2 342 0 380 1 536 2 348 2 -188 2 -498 0 -690z"/>
<path d="M2387 12850 c-14 -16 -30 -30 -35 -30 -5 0 -13 -10 -17 -22 -4 -13
-10 -30 -13 -38 -3 -8 -8 -1674 -9 -3702 -3 -3517 -3 -3689 14 -3720 24 -44
53 -74 80 -82 13 -4 23 -12 23 -17 0 -13 375 -11 540 2 174 15 932 14 980 0
56 -17 167 -14 203 7 36 20 67 48 67 61 0 5 6 14 14 21 15 12 16 599 1 2110
l-5 555 26 28 27 29 133 -4 c89 -2 137 -7 146 -15 6 -7 26 -13 42 -13 17 0 44
-7 60 -15 15 -8 37 -15 47 -15 10 0 22 -6 26 -13 4 -7 23 -19 40 -26 18 -7 30
-17 27 -22 -3 -5 2 -9 11 -9 8 0 18 -7 21 -15 4 -8 11 -15 18 -15 11 0 46 -35
46 -46 0 -3 21 -26 47 -52 27 -26 55 -60 63 -76 8 -15 25 -38 37 -50 13 -11
23 -24 23 -28 0 -4 14 -21 30 -38 17 -17 30 -40 30 -50 0 -11 5 -20 10 -20 6
0 16 -11 22 -25 6 -14 16 -25 22 -25 7 0 12 -10 13 -21 1 -12 9 -29 17 -38 9
-10 16 -25 16 -34 0 -9 5 -17 10 -17 6 0 14 -8 18 -17 15 -35 54 -93 63 -93 5
0 9 -11 9 -25 0 -26 9 -42 43 -73 9 -9 17 -23 17 -30 0 -8 9 -25 20 -39 11
-14 20 -32 20 -39 0 -8 4 -14 10 -14 5 0 12 -16 16 -35 3 -20 12 -35 20 -35 8
0 14 -6 14 -13 0 -7 9 -18 20 -25 11 -7 20 -22 20 -33 0 -12 14 -41 30 -66 17
-24 30 -48 30 -53 0 -9 6 -18 53 -72 9 -12 17 -31 17 -43 0 -13 7 -25 15 -29
8 -3 15 -14 15 -23 0 -21 35 -55 46 -45 4 4 4 1 0 -5 -8 -14 21 -73 42 -86 6
-4 12 -15 12 -24 0 -8 14 -35 30 -60 17 -24 30 -48 30 -52 0 -4 9 -18 20 -31
11 -13 20 -31 20 -42 0 -10 7 -18 15 -18 8 0 15 -7 15 -16 0 -8 7 -22 15 -30
8 -9 15 -24 15 -35 0 -10 4 -19 9 -19 5 0 15 -16 22 -35 7 -19 16 -35 20 -35
4 0 12 -14 18 -30 5 -16 15 -30 20 -30 6 0 11 -9 11 -20 0 -11 7 -20 15 -20 8
0 15 -6 15 -14 0 -20 51 -116 61 -116 5 0 9 -9 9 -20 0 -11 4 -20 9 -20 5 0
14 -12 20 -27 13 -32 43 -86 52 -93 6 -5 32 -51 48 -87 6 -13 15 -23 21 -23 5
0 10 -9 10 -20 0 -11 6 -23 14 -26 8 -3 18 -20 21 -37 4 -18 20 -49 36 -69 16
-20 29 -42 29 -47 0 -6 9 -21 20 -33 43 -49 50 -58 50 -68 0 -5 17 -12 38 -16
20 -4 429 -8 909 -8 683 -1 875 -4 884 -13 19 -19 183 -17 203 2 8 8 19 15 25
15 6 0 11 8 11 17 0 9 8 25 18 36 13 15 17 37 17 94 0 60 -4 77 -17 87 -10 7
-18 18 -18 24 0 5 -7 12 -15 16 -8 3 -15 17 -15 32 0 17 -12 36 -35 57 -19 17
-35 39 -35 48 0 22 -39 89 -51 89 -5 0 -9 9 -9 20 0 11 -7 20 -15 20 -8 0 -15
9 -15 19 0 30 -11 51 -26 51 -8 0 -14 8 -14 19 0 10 -7 24 -15 31 -8 7 -15 19
-15 26 0 8 -4 14 -9 14 -5 0 -15 16 -22 35 -7 19 -19 35 -27 35 -7 0 -10 5 -7
10 3 6 -1 13 -9 16 -9 3 -18 21 -22 40 -3 19 -12 34 -20 34 -8 0 -14 6 -14 14
0 7 -6 19 -14 25 -8 7 -18 26 -21 42 -4 17 -13 33 -21 36 -8 3 -14 14 -14 24
0 10 -5 19 -11 19 -5 0 -15 14 -20 30 -6 17 -14 30 -19 30 -4 0 -10 9 -13 21
-3 12 -10 18 -16 15 -6 -4 -13 8 -16 28 -4 19 -13 37 -21 40 -8 3 -14 12 -14
19 0 8 -7 20 -15 27 -8 7 -15 21 -15 31 0 11 -5 19 -10 19 -6 0 -15 12 -21 26
-5 15 -23 44 -39 64 -17 21 -30 43 -30 49 0 6 -9 20 -20 31 -11 11 -20 29 -20
41 0 11 -4 18 -9 14 -5 -3 -12 3 -16 14 -3 11 -12 22 -20 25 -9 3 -15 18 -15
36 0 20 -5 30 -15 30 -8 0 -15 7 -15 15 0 9 -6 18 -14 21 -8 3 -18 18 -21 34
-3 16 -13 31 -21 34 -8 3 -14 16 -14 30 0 13 -7 26 -15 30 -8 3 -15 12 -15 20
0 7 -7 16 -15 20 -8 3 -15 15 -15 26 0 11 -7 23 -15 26 -8 3 -25 27 -37 52
-13 26 -29 51 -35 55 -7 4 -13 17 -13 27 0 11 -8 28 -17 39 -31 33 -53 65 -53
77 0 6 -7 17 -15 24 -8 7 -15 21 -15 31 0 11 -5 19 -10 19 -6 0 -15 11 -20 25
-5 14 -14 25 -20 25 -5 0 -10 7 -10 15 0 8 -9 24 -19 34 -11 11 -21 27 -23 38
-2 10 -10 17 -16 15 -7 -1 -11 1 -11 5 4 27 -3 53 -15 53 -8 0 -16 10 -20 23
-3 12 -19 37 -36 55 -16 18 -30 42 -30 53 0 11 -7 22 -15 25 -8 4 -15 13 -15
20 0 8 -7 17 -15 20 -8 4 -15 13 -15 21 0 8 -4 11 -10 8 -5 -3 -7 0 -4 8 3 8
-15 35 -41 62 -25 27 -45 57 -45 67 0 10 -7 21 -15 24 -8 4 -15 11 -15 18 0 6
-9 19 -20 29 -11 9 -20 24 -20 33 0 9 -6 14 -13 11 -8 -3 -21 10 -33 31 -10
21 -34 51 -51 68 -18 17 -33 35 -33 40 0 5 -22 31 -50 58 -27 27 -50 55 -50
62 0 8 -7 14 -15 14 -8 0 -15 7 -15 16 0 9 -6 14 -13 11 -11 -4 -42 20 -42 33
0 3 -3 4 -7 3 -5 -2 -8 6 -8 17 0 11 -6 20 -14 20 -8 0 -16 7 -20 15 -3 8 -12
15 -21 15 -8 0 -15 4 -15 8 0 5 -11 15 -25 22 -37 20 -44 74 -14 106 12 13 33
24 46 24 13 0 26 7 29 15 4 8 15 15 25 15 10 0 19 4 19 8 0 4 28 23 63 41 78
41 158 97 150 105 -4 3 0 6 9 6 8 0 25 9 38 20 13 11 29 20 37 20 7 0 16 7 19
15 4 8 12 15 20 15 8 0 14 7 14 15 0 8 7 15 15 15 8 0 19 9 25 20 6 11 14 20
19 20 13 0 116 100 114 110 -2 6 2 10 9 10 14 0 123 112 120 123 -1 4 5 7 13
7 8 0 15 9 15 20 0 11 7 20 15 20 8 0 15 6 15 13 0 8 8 24 18 36 9 11 26 33
37 47 11 14 32 40 48 57 15 18 30 42 33 54 3 12 12 24 20 27 8 3 14 17 14 31
0 14 6 28 14 31 8 3 17 16 20 30 4 13 11 24 16 24 6 0 10 10 10 23 0 12 9 33
20 47 11 14 20 35 20 46 0 12 7 27 15 34 8 7 15 20 15 29 0 9 7 25 15 35 8 11
15 32 15 47 0 14 6 32 14 38 7 6 16 33 19 59 3 26 13 61 21 77 8 17 18 56 21
88 4 31 11 57 16 57 5 0 9 40 9 88 0 50 5 93 11 99 29 29 32 450 3 585 -8 37
-14 101 -14 142 0 41 -4 77 -10 81 -5 3 -12 32 -16 65 -4 33 -12 65 -20 71 -7
6 -16 35 -20 65 -3 30 -10 54 -15 54 -5 0 -12 18 -15 40 -4 22 -10 37 -15 34
-5 -3 -6 1 -3 9 3 8 1 18 -5 22 -6 3 -11 16 -11 28 -1 12 -12 40 -25 62 -31
50 -45 82 -45 101 0 8 -7 17 -15 20 -8 4 -15 13 -15 20 0 8 -7 17 -15 20 -8 4
-15 17 -15 30 0 13 -9 28 -20 34 -11 6 -20 17 -20 25 0 8 -7 15 -15 15 -9 0
-15 9 -15 25 0 14 -8 29 -20 35 -11 6 -18 15 -15 21 4 5 -1 9 -9 9 -9 0 -16 4
-16 10 0 5 -22 31 -50 58 -27 27 -50 56 -50 65 0 11 -5 14 -17 10 -11 -4 -14
-3 -9 6 9 13 -14 35 -51 51 -13 5 -23 17 -23 25 0 9 -5 13 -10 10 -6 -3 -13 1
-16 9 -3 9 -12 16 -19 16 -7 0 -15 9 -18 20 -3 11 -12 20 -21 20 -9 0 -16 7
-16 15 0 8 -9 15 -20 15 -10 0 -33 14 -50 30 -17 17 -53 42 -81 56 -27 14 -49
30 -49 35 0 5 -9 9 -19 9 -11 0 -26 7 -34 15 -8 7 -26 17 -40 20 -14 4 -28 13
-31 21 -3 8 -19 14 -35 14 -16 0 -31 6 -34 14 -3 8 -19 17 -36 21 -17 4 -31
11 -31 16 0 5 -11 9 -25 9 -14 0 -42 9 -62 20 -21 11 -47 20 -59 20 -12 0 -27
7 -34 15 -7 8 -25 15 -39 15 -15 0 -36 7 -47 15 -10 8 -38 15 -62 15 -23 0
-53 6 -65 14 -12 7 -44 16 -71 20 -26 3 -69 12 -95 20 -87 28 -189 46 -258 46
-38 0 -95 7 -126 15 -50 13 -266 15 -1642 15 l-1583 0 -25 -30z m3074 -87 c8
-8 39 -13 76 -13 34 0 109 -9 165 -20 57 -11 123 -20 148 -20 25 -1 56 -7 70
-15 14 -8 45 -15 70 -15 25 0 56 -7 70 -15 14 -8 45 -14 70 -15 25 0 57 -6 72
-14 14 -8 46 -17 70 -21 24 -4 52 -14 63 -21 11 -8 29 -14 42 -14 12 0 28 -7
37 -15 8 -8 28 -15 44 -15 16 0 35 -7 42 -15 7 -8 19 -15 27 -15 8 0 31 -8 51
-19 89 -44 104 -51 118 -51 8 0 14 -4 14 -9 0 -5 12 -14 28 -20 54 -23 102
-51 102 -61 0 -6 7 -10 15 -10 8 0 15 -5 15 -11 0 -5 14 -15 30 -20 17 -6 30
-15 30 -20 0 -5 7 -9 15 -9 8 0 19 -9 25 -20 6 -11 16 -20 22 -20 6 0 18 -7
27 -15 9 -8 41 -39 71 -68 30 -28 59 -51 63 -49 5 1 5 -2 2 -8 -7 -11 38 -60
55 -60 5 0 11 -8 15 -19 3 -10 16 -30 28 -43 48 -53 77 -92 77 -105 0 -7 7
-21 16 -30 25 -28 84 -123 84 -136 0 -7 16 -43 35 -82 19 -38 35 -77 35 -85 0
-8 7 -24 15 -34 8 -11 15 -31 15 -45 1 -14 7 -37 15 -51 8 -14 14 -37 15 -52
0 -14 6 -39 14 -55 8 -15 20 -64 26 -108 6 -44 15 -102 20 -130 12 -72 11
-621 -1 -675 -6 -25 -15 -76 -21 -115 -5 -38 -16 -83 -24 -98 -8 -16 -14 -48
-14 -72 0 -26 -6 -47 -15 -55 -8 -7 -15 -21 -15 -31 0 -11 -9 -36 -20 -56 -11
-21 -20 -50 -20 -66 0 -15 -7 -30 -15 -33 -8 -4 -15 -14 -15 -24 0 -10 -7 -25
-15 -34 -8 -8 -15 -24 -15 -35 0 -11 -4 -22 -9 -26 -6 -3 -17 -19 -25 -35 -9
-17 -23 -43 -32 -60 -8 -16 -19 -32 -25 -35 -5 -4 -9 -14 -9 -25 0 -10 -7 -20
-15 -24 -8 -3 -15 -12 -15 -19 0 -8 -7 -20 -15 -27 -8 -7 -13 -16 -10 -20 3
-5 -6 -17 -20 -28 -14 -11 -25 -25 -25 -31 0 -6 -7 -11 -15 -11 -14 0 -19 -12
-16 -32 0 -5 -5 -7 -12 -5 -6 1 -12 -6 -12 -15 0 -10 -13 -32 -28 -49 -15 -17
-27 -28 -27 -24 0 9 -58 -53 -78 -82 -8 -13 -23 -23 -33 -23 -11 0 -19 -4 -19
-10 0 -13 -37 -50 -43 -43 -3 2 -8 -5 -12 -16 -3 -12 -11 -19 -16 -16 -5 4 -9
1 -9 -4 0 -6 -9 -11 -20 -11 -11 0 -20 -7 -20 -15 0 -8 -7 -15 -15 -15 -8 0
-15 -4 -15 -9 0 -9 -101 -79 -140 -97 -14 -7 -34 -21 -45 -31 -22 -21 -62 -45
-107 -64 -16 -6 -28 -15 -28 -20 0 -5 -8 -9 -17 -9 -10 0 -31 -9 -48 -20 -16
-11 -37 -20 -46 -20 -9 0 -22 -7 -29 -15 -7 -8 -23 -15 -35 -15 -12 0 -28 -7
-35 -15 -7 -8 -23 -15 -35 -15 -12 0 -28 -7 -35 -15 -7 -8 -19 -15 -26 -15
-21 0 -94 -34 -94 -43 0 -4 4 -6 9 -3 4 3 19 -3 31 -14 13 -11 29 -20 37 -20
7 0 16 -7 19 -15 4 -8 14 -15 24 -15 10 0 23 -7 30 -15 7 -8 19 -15 26 -15 8
0 14 -7 14 -15 0 -8 5 -15 11 -15 6 0 39 -25 74 -55 34 -30 67 -55 74 -55 6 0
10 -3 8 -8 -3 -9 40 -52 53 -52 6 0 10 -7 10 -15 0 -8 7 -15 15 -15 8 0 15 -4
15 -9 0 -12 47 -61 60 -61 5 0 10 -7 10 -15 0 -9 7 -18 15 -21 8 -3 17 -15 21
-26 3 -12 19 -34 35 -49 16 -16 29 -33 29 -39 0 -5 7 -10 15 -10 8 0 15 -6 15
-13 0 -7 9 -18 20 -25 11 -7 20 -19 20 -27 0 -8 6 -15 13 -15 7 0 13 -10 14
-22 1 -12 9 -26 18 -30 8 -5 15 -13 15 -19 0 -5 11 -20 24 -32 13 -12 30 -36
39 -53 9 -17 27 -42 41 -55 14 -13 26 -31 26 -40 0 -9 7 -22 15 -29 8 -7 15
-19 15 -26 0 -8 4 -14 9 -14 5 0 16 -15 25 -32 9 -18 26 -46 36 -63 11 -16 23
-36 27 -44 3 -8 15 -23 25 -33 10 -10 18 -26 18 -36 0 -9 14 -28 30 -42 17
-14 30 -33 30 -42 0 -10 16 -41 35 -68 19 -27 35 -52 35 -56 0 -3 7 -12 15
-20 8 -9 15 -24 15 -35 0 -10 4 -19 8 -19 10 0 48 -57 77 -115 22 -43 31 -56
58 -86 9 -10 17 -23 17 -27 0 -5 9 -19 20 -32 11 -13 20 -31 20 -41 0 -10 6
-22 13 -26 13 -9 32 -36 46 -68 5 -12 16 -27 25 -34 9 -7 16 -20 16 -28 0 -14
8 -26 43 -64 9 -10 17 -30 17 -44 0 -15 6 -25 14 -25 8 0 18 -9 21 -20 3 -11
10 -20 15 -20 5 0 11 -13 15 -29 3 -16 13 -32 21 -35 8 -3 14 -15 14 -26 0
-11 4 -20 9 -20 9 0 21 -18 53 -80 7 -14 18 -29 25 -33 7 -4 13 -16 13 -26 0
-10 7 -24 15 -31 8 -7 15 -18 15 -25 0 -7 6 -15 13 -18 6 -3 23 -27 37 -53 14
-27 31 -55 38 -62 6 -7 12 -20 12 -27 0 -8 6 -18 13 -22 7 -4 18 -19 25 -33
15 -32 33 -60 50 -78 6 -7 12 -20 12 -28 0 -8 7 -17 15 -20 8 -4 15 -15 15
-25 0 -10 5 -19 10 -19 6 0 16 -12 23 -27 6 -16 17 -32 24 -36 7 -4 13 -16 13
-25 1 -20 34 -62 49 -62 11 0 16 -19 13 -52 -1 -10 3 -18 9 -18 16 0 58 -53
59 -73 0 -10 7 -20 15 -23 9 -4 15 -19 15 -35 0 -19 5 -29 14 -29 8 0 17 -9
21 -19 3 -11 13 -22 21 -25 8 -3 12 -10 9 -16 -3 -5 0 -10 8 -10 32 0 38 -79
7 -87 -11 -3 -20 -8 -20 -12 0 -7 -1815 -4 -1851 4 -27 6 -69 54 -69 79 0 8
-5 18 -11 22 -6 3 -17 22 -25 40 -8 19 -19 34 -24 34 -6 0 -10 9 -10 21 0 11
-4 18 -9 15 -10 -6 -21 16 -21 43 0 9 -9 24 -20 34 -11 9 -20 23 -20 31 0 8
-7 16 -15 20 -8 3 -15 16 -15 30 0 13 -7 26 -15 30 -8 3 -15 12 -15 20 0 7 -7
16 -15 20 -8 3 -15 16 -15 28 0 13 -8 31 -17 40 -33 30 -53 62 -53 85 0 13 -5
23 -10 23 -6 0 -15 12 -20 26 -6 14 -14 23 -19 20 -5 -4 -13 8 -16 26 -4 18
-19 51 -34 73 -38 60 -49 78 -60 100 -5 12 -16 27 -25 34 -9 7 -16 24 -16 36
0 13 -7 25 -15 29 -8 3 -15 12 -15 20 0 7 -7 16 -15 20 -8 3 -15 15 -15 26 0
22 -36 79 -57 93 -7 4 -13 14 -13 22 0 20 -38 82 -54 88 -9 3 -12 15 -9 31 3
16 1 26 -6 26 -19 0 -60 53 -61 78 0 12 -4 22 -10 22 -5 0 -13 12 -16 26 -4
15 -15 35 -25 45 -11 11 -19 28 -19 39 0 11 -3 20 -8 20 -7 0 -13 10 -42 66
-8 16 -20 33 -27 37 -7 4 -13 19 -13 32 0 14 -5 25 -11 25 -5 0 -17 16 -25 35
-8 19 -19 35 -24 35 -6 0 -10 8 -10 19 0 10 -7 24 -15 31 -8 7 -15 21 -15 32
0 10 -7 21 -15 24 -8 4 -15 14 -15 25 0 10 -9 23 -20 29 -11 6 -20 15 -20 21
0 6 -7 17 -15 25 -8 9 -15 24 -15 34 0 10 -7 20 -15 24 -8 3 -15 17 -15 30 0
14 -6 29 -12 33 -7 4 -19 18 -25 31 -7 12 -19 32 -25 45 -7 12 -19 26 -25 30
-7 4 -13 17 -13 28 0 11 -4 18 -9 15 -5 -3 -14 8 -20 24 -5 17 -15 30 -20 30
-6 0 -11 7 -11 15 0 8 -9 24 -20 35 -11 11 -20 24 -20 29 0 5 -7 11 -15 15 -8
3 -15 12 -15 21 0 8 -7 15 -15 15 -8 0 -15 6 -15 13 0 8 -9 22 -20 32 -11 10
-20 22 -20 27 0 5 -13 22 -30 38 -16 16 -30 34 -30 40 0 5 -4 10 -10 10 -5 0
-33 22 -60 49 -28 28 -60 53 -70 56 -11 4 -20 11 -20 16 0 5 -7 9 -15 9 -7 0
-18 6 -22 13 -10 15 -95 57 -116 57 -8 0 -17 5 -19 11 -8 23 -351 38 -496 23
l-62 -7 -2 -1391 -3 -1391 -40 -7 c-70 -11 -1567 -11 -1597 1 l-28 11 0 3677
0 3678 29 20 c28 20 45 20 1499 20 1163 0 1474 -3 1483 -12z"/>
<path d="M4153 11442 c-31 -3 -33 -6 -33 -41 0 -29 5 -40 23 -49 15 -8 152
-13 445 -16 361 -4 427 -7 448 -20 13 -9 45 -16 71 -16 26 0 61 -7 77 -15 15
-8 46 -15 67 -15 22 0 39 -4 39 -10 0 -5 19 -15 43 -22 23 -6 44 -15 47 -18 3
-3 35 -21 72 -39 37 -18 70 -41 73 -51 3 -10 12 -21 20 -24 8 -3 15 -12 15
-21 0 -8 7 -15 15 -15 8 0 15 -4 15 -10 0 -5 8 -19 18 -29 35 -39 43 -52 54
-81 5 -17 14 -30 19 -30 5 0 9 -13 9 -29 0 -16 6 -42 14 -58 46 -90 63 -347
31 -463 -8 -30 -15 -71 -15 -91 0 -20 -7 -42 -15 -49 -8 -7 -15 -21 -15 -30 0
-17 -15 -52 -47 -110 -8 -14 -17 -33 -20 -42 -3 -10 -12 -18 -19 -18 -8 0 -14
-7 -14 -15 0 -7 -6 -18 -13 -22 -7 -4 -18 -20 -24 -35 -7 -16 -17 -28 -23 -28
-5 0 -10 -7 -10 -15 0 -8 -5 -15 -11 -15 -6 0 -25 -16 -42 -35 -17 -19 -37
-35 -44 -35 -7 0 -13 -4 -13 -10 0 -5 -11 -12 -25 -16 -14 -3 -25 -12 -25 -20
0 -8 -6 -14 -14 -14 -7 0 -24 -8 -37 -18 -13 -11 -36 -22 -51 -26 -16 -3 -28
-11 -28 -16 0 -6 -13 -10 -28 -10 -15 0 -32 -4 -37 -9 -6 -5 -53 -20 -105 -34
-107 -30 -196 -36 -630 -42 -146 -3 -275 -7 -287 -10 -20 -5 -23 -12 -23 -55
l0 -50 368 -1 c449 -1 454 -1 504 17 22 8 62 14 89 14 26 0 50 4 54 9 3 5 20
13 38 17 17 3 48 15 67 25 19 11 41 19 48 19 16 0 70 29 90 48 7 6 22 12 32
12 10 0 21 9 25 19 3 11 11 18 18 15 7 -2 30 14 52 37 22 22 61 62 88 89 26
26 47 51 47 54 0 4 12 18 26 31 16 15 24 31 20 40 -4 10 1 15 15 15 11 0 17 5
14 10 -3 6 -1 10 4 10 6 0 11 9 11 20 0 11 7 20 15 20 9 0 15 9 15 23 0 12 16
51 35 87 19 35 35 78 35 95 0 17 7 40 15 52 12 18 17 62 20 205 4 198 -4 309
-23 316 -7 2 -12 21 -12 43 0 35 -13 71 -56 151 -8 14 -14 33 -14 41 0 8 -7
17 -15 21 -8 3 -15 13 -15 22 0 9 -22 39 -50 65 -27 26 -50 53 -50 58 0 6 -4
11 -10 11 -5 0 -19 9 -30 20 -12 12 -25 18 -30 15 -6 -4 -10 0 -10 8 0 7 -11
19 -25 25 -14 6 -25 16 -25 22 0 5 -11 10 -25 10 -13 0 -28 7 -32 15 -5 8 -23
15 -41 17 -17 1 -32 7 -32 13 0 10 -37 22 -140 46 -25 6 -70 18 -100 27 -47
14 -116 17 -500 17 -245 0 -460 -1 -477 -3z"/>
<path d="M15340 11013 c-8 -4 -21 -12 -28 -20 -7 -7 -22 -13 -32 -13 -10 0
-22 -5 -25 -11 -4 -5 -18 -14 -32 -20 -13 -5 -21 -13 -18 -19 3 -5 1 -10 -5
-10 -7 0 -23 -9 -37 -20 -14 -11 -34 -20 -44 -20 -11 0 -19 -5 -19 -10 0 -6
-8 -14 -17 -17 -9 -4 -24 -13 -32 -20 -43 -37 -113 -83 -126 -83 -8 0 -15 -5
-15 -11 0 -5 -13 -15 -30 -20 -16 -6 -30 -15 -30 -20 0 -5 -9 -9 -19 -9 -11 0
-23 -9 -26 -20 -4 -11 -10 -18 -14 -15 -4 2 -17 -5 -29 -15 -12 -11 -26 -20
-32 -20 -6 0 -13 -7 -16 -15 -4 -8 -11 -15 -18 -15 -6 0 -29 -16 -51 -35 -22
-19 -46 -35 -52 -35 -7 0 -13 -7 -13 -15 0 -8 -5 -15 -11 -15 -13 0 -48 -40
-49 -56 0 -6 -9 -19 -20 -29 -11 -10 -20 -22 -20 -27 0 -9 -37 -48 -46 -48
-18 0 -74 34 -74 45 0 8 -6 26 -14 42 -8 15 -27 54 -43 86 -15 32 -34 69 -41
83 -19 35 -126 139 -165 158 -17 9 -39 21 -47 26 -104 63 -410 59 -491 -7 -8
-7 -23 -13 -32 -13 -21 0 -139 -121 -133 -137 3 -7 -1 -10 -10 -6 -9 3 -14 -1
-14 -15 0 -11 -6 -25 -14 -31 -8 -7 -18 -27 -22 -44 -3 -18 -13 -41 -20 -52
-8 -11 -14 -29 -14 -42 0 -12 -7 -26 -16 -31 -15 -8 -17 -56 -19 -485 -2 -548
-16 -489 113 -487 42 1 399 -3 792 -9 393 -5 717 -8 720 -6 3 2 82 4 175 6
176 2 288 13 293 30 2 5 8 7 13 3 5 -3 9 37 9 94 0 82 -3 101 -16 106 -9 3
-200 6 -426 6 -402 0 -411 0 -445 21 l-35 22 4 168 c2 117 7 172 16 181 6 6
12 27 12 45 0 18 4 33 9 33 5 0 15 15 21 34 6 19 14 36 18 38 11 5 52 66 52
78 0 5 6 10 13 10 8 0 22 9 32 20 10 11 24 20 32 20 8 0 12 4 8 9 -3 5 4 12
15 16 11 4 35 20 53 36 17 16 42 32 55 35 12 4 22 12 22 20 0 8 8 14 19 14 10
0 24 7 31 15 7 8 21 15 31 15 11 0 19 7 19 15 0 9 10 20 23 25 12 6 36 19 52
30 17 11 38 23 47 27 9 5 16 13 15 18 -1 6 9 11 23 13 14 2 30 9 35 16 6 7 21
17 34 21 13 4 37 20 52 36 16 16 38 29 49 29 11 0 23 7 26 15 4 8 11 15 17 15
5 0 27 18 49 40 l38 41 0 99 c0 102 -2 107 -40 93z m-1368 -454 c37 -11 72
-27 79 -35 6 -8 18 -14 25 -14 8 0 14 -7 14 -15 0 -8 5 -15 12 -15 10 0 88
-75 88 -85 0 -2 13 -23 29 -47 16 -24 32 -61 36 -83 4 -22 13 -46 19 -54 7 -9
12 -101 14 -272 l3 -258 -37 -16 c-33 -14 -90 -15 -415 -13 l-377 3 -26 24
-26 24 0 185 c0 137 4 192 14 215 8 18 16 65 19 105 2 40 10 79 16 85 6 6 11
23 11 38 0 15 6 34 13 41 15 14 43 62 53 91 3 9 11 17 18 17 6 0 17 9 24 20 7
11 19 20 27 20 8 0 15 4 15 10 0 5 12 13 28 16 15 4 33 11 39 16 18 14 110 25
168 21 28 -3 80 -14 117 -24z"/>
<path d="M15235 8880 c-4 -6 -7 -226 -7 -489 l-1 -478 -31 -19 c-22 -13 -49
-18 -96 -17 -349 5 -669 14 -687 18 l-23 5 0 425 c0 371 -2 425 -15 425 -8 0
-15 5 -15 10 0 15 -102 11 -123 -4 -17 -13 -18 -36 -13 -393 2 -208 5 -388 6
-401 6 -77 -43 -97 -206 -81 -54 5 -206 9 -336 7 -219 -2 -239 -1 -258 17 -20
18 -20 27 -20 456 0 498 4 475 -78 466 -24 -3 -48 -11 -53 -18 -5 -8 -9 -198
-9 -424 0 -225 -3 -473 -6 -550 -7 -183 -7 -183 108 -167 57 8 387 14 1033 17
523 3 956 6 963 7 18 2 10 157 -14 293 -16 91 -17 124 -6 380 6 154 16 296 22
315 5 19 10 71 10 116 0 76 -2 82 -22 88 -37 9 -116 7 -123 -4z"/>
<path d="M13359 6933 c-8 -1 -31 -4 -51 -8 l-38 -6 0 -73 0 -73 444 1 c343 0
450 -3 469 -13 13 -7 31 -30 40 -50 14 -31 15 -47 7 -92 -7 -34 -10 -259 -9
-612 1 -330 -2 -562 -7 -567 -5 -5 -205 -11 -467 -12 -394 -3 -459 -5 -467
-18 -6 -8 -9 -44 -8 -80 l3 -64 520 -2 c286 -1 757 -4 1047 -6 289 -1 529 -1
532 2 3 3 8 35 12 71 8 81 -6 101 -70 97 -22 -1 -233 -1 -468 0 -375 2 -428 4
-443 18 -14 14 -15 81 -13 651 l3 635 30 25 29 26 420 -5 c230 -3 439 -3 463
0 l43 5 0 60 c0 33 -3 57 -7 54 -3 -4 -12 1 -19 11 -12 16 -78 17 -996 22
-542 3 -991 4 -999 3z"/>
</g>
</svg>
